/* XPM */
static char *icon_xpm[] = {
"32 32 80 1",
"A	c #000000",
"B	c #0C0000",
"C	c #4A0000",
"D	c #7C0000",
"E	c #A10000",
"F	c #AD0000",
"G	c #C60000",
"H	c #FF0000",
"I	c #BB120E",
"J	c #F41408",
"K	c #B11A0B",
"L	c #CE5C42",
"M	c #9F421B",
"N	c #CE5623",
"O	c #FE6A2B",
"P	c #DE5D26",
"Q	c #5F2810",
"R	c #100703",
"S	c #8E5B44",
"T	c #F9773B",
"U	c #D8A980",
"V	c #E4AD7A",
"W	c #907255",
"X	c #090900",
"Y	c #101000",
"Z	c #373700",
"a	c #505040",
"b	c #5C5C00",
"c	c #606000",
"d	c #777700",
"e	c #818100",
"f	c #939300",
"g	c #9A9A00",
"h	c #9F9F00",
"i	c #BABA95",
"j	c #CFCF00",
"k	c #D0D000",
"l	c #D5D500",
"m	c #DFDF00",
"n	c #D5D5AA",
"o	c #E5E56A",
"p	c #FAFA15",
"q	c #FFFF00",
"r	c #8E930E",
"s	c #D3D77B",
"t	c #B9C742",
"u	c #BDC99A",
"v	c #7B9244",
"w	c #B3C393",
"x	c #859F55",
"y	c #A8BE8C",
"z	c #9EB985",
"0	c #95B280",
"1	c #8CAA7C",
"2	c #82A377",
"3	c #293729",
"4	c #5F805F",
"5	c #6D926D",
"6	c #B9C4BB",
"7	c #B5CDCA",
"8	c #728C94",
"9	c #8BC2F4",
"+	c #080C10",
"/	c #304860",
"!	c #80BFFF",
"#	c #70A7DF",
"$	c #689BCF",
"%	c #50779F",
"&	c #6279A4",
"'	c #8F9CC2",
"(	c #5464BF",
")	c #7783FF",
"*	c #5458ED",
",	c #050510",
"-	c #1E1E60",
".	c #32329F",
":	c #4141CF",
";	c #4646DF",
"<	c #5050FF",
"=	c #8080FF",
"AAAAAAAAAAAAAAAAAAAAAAAAAAAAAAAA",
"AAAAAKAAAAAAAAAgAAAAAAAAAGAAAAAA",
"AAAACJQAAAAAAAZkcAAAAAAAKH/AAAAA",
"AAAAFHPAAAAAAAelmAAAAAAANPBAAAAA",
"AAA3WLUaAAAAA3xtsaAAAAA38F6aAAAA",
"AAA42zuiAAAAA42zuiAAAAA42zuiAAAA",
"AA351zwnaAAA351zwnaAAA351zwnaAAA",
"AA450zyniAAA450zyniAAA450zyniAAA",
"AAISzzzVTAAArvzzzopAAAIEzzz79AAA",
"AAGGHHHOOAAAfflllqqAAAOOPPPAAAAA",
"AAGGHHHOOAAAfflllqqAAAOOPPPAAAAA",
"AAGGHHHOOAAAfflllqqAAAOOPPPAAAAA",
"AAGGHHHOOAAAfflllqqAAAOOPPPAAAAA",
"AAGGHHHOOAAAfflllqqAAAOOPPPAAAAA",
"AAGGHHHOOAAAfflllqqAAAOOPPPAAAAA",
"AAGGHHHOOAAAfflllqqAAAOOPPPAAAAA",
"AAGGHHHOOAAAfflllqqAAAOOPPPAAAAA",
"AAGGHHHOOAAAfflllqqAAAOOPPPAAAAA",
"AAGGHHHOOAAAfflllqqAAAOOPPPAAAAA",
"AAGGHHHOOAAAfflllqqAAAOOPPPAAAAA",
"AAGGHHHOOAAAfflllqqAAAOOPPPAAAAA",
"AAGGHHHOOAAAfflllqqAAAOOPPPAAAAA",
"AAGGHHHOOAAAfflllqqAAAOOPPPAAAAA",
"AAGGHHHOOAAAfflllqqAAAOOPPPAAAAA",
"AAGGHHHOOAAAfflllqqAAAOOPPPAAAAA",
"AAGGHHHOOAAAfflllqqAAAOOPPPAAAAA",
"AAGGHHHOOAAAfflllqqAAAOOPPPAAAAA",
"AAGGHHHOOAAAfflllqqAAAOOPPPAAAAA",
"AAEGHHHONAAAdflllqjAAAMOPPPACAAA",
"AABDHHHMRAAAXblllhYAAAJLPPPD+AAA",
"AAAAAAAAAAAAAAAAAAAAAAAAAAAAAAAA",
"AAAAAAAAAAAAAAAAAAAAAAAAAAAAAAAA"
};
