/* XPM */
static char *icon_xpm[] = {
"32 32 80 2",
"00	c #000000",
"01	c #0C0000",
"02	c #4A0000",
"03	c #7C0000",
"04	c #A10000",
"05	c #AD0000",
"06	c #C60000",
"07	c #FF0000",
"08	c #BB120E",
"09	c #F41408",
"0A	c #B11A0B",
"0B	c #CE5C42",
"0C	c #9F421B",
"0D	c #CE5623",
"0E	c #FE6A2B",
"0F	c #DE5D26",
"10	c #5F2810",
"11	c #100703",
"12	c #8E5B44",
"13	c #F9773B",
"14	c #D8A980",
"15	c #E4AD7A",
"16	c #907255",
"17	c #090900",
"18	c #101000",
"19	c #373700",
"1A	c #505040",
"1B	c #5C5C00",
"1C	c #606000",
"1D	c #777700",
"1E	c #818100",
"1F	c #939300",
"20	c #9A9A00",
"21	c #9F9F00",
"22	c #BABA95",
"23	c #CFCF00",
"24	c #D0D000",
"25	c #D5D500",
"26	c #DFDF00",
"27	c #D5D5AA",
"28	c #E5E56A",
"29	c #FAFA15",
"2A	c #FFFF00",
"2B	c #8E930E",
"2C	c #D3D77B",
"2D	c #B9C742",
"2E	c #BDC99A",
"2F	c #7B9244",
"30	c #B3C393",
"31	c #859F55",
"32	c #A8BE8C",
"33	c #9EB985",
"34	c #95B280",
"35	c #8CAA7C",
"36	c #82A377",
"37	c #293729",
"38	c #5F805F",
"39	c #6D926D",
"3A	c #B9C4BB",
"3B	c #B5CDCA",
"3C	c #728C94",
"3D	c #8BC2F4",
"3E	c #080C10",
"3F	c #304860",
"40	c #80BFFF",
"41	c #70A7DF",
"42	c #689BCF",
"43	c #50779F",
"44	c #6279A4",
"45	c #8F9CC2",
"46	c #5464BF",
"47	c #7783FF",
"48	c #5458ED",
"49	c #050510",
"4A	c #1E1E60",
"4B	c #32329F",
"4C	c #4141CF",
"4D	c #4646DF",
"4E	c #5050FF",
"4F	c #8080FF",
"0000000000000000000000000000000000000000000000000000000000000000",
"00000000000A0000000000000000002000000000000000000046000000000000",
"000000000209100000000000000019241C000000000000004A473F0000000000",
"0000000005070F000000000000001E2526000000000000004D4F410000000000",
"00000037160B141A000000000037312D2C1A0000000000373C453A1A00000000",
"0000003836332E2200000000003836332E2200000000003836332E2200000000",
"00003739353330271A0000003739353330271A0000003739353330271A000000",
"0000383934333227220000003839343332272200000038393433322722000000",
"0000081233333315130000002B2F333333282900000048443333333B3D000000",
"000006060707070E0E0000001F1F2525252A2A0000004E4E4F4F4F4040000000",
"000006060707070E0E0000001F1F2525252A2A0000004E4E4F4F4F4040000000",
"000006060707070E0E0000001F1F2525252A2A0000004E4E4F4F4F4040000000",
"000006060707070E0E0000001F1F2525252A2A0000004E4E4F4F4F4040000000",
"000006060707070E0E0000001F1F2525252A2A0000004E4E4F4F4F4040000000",
"000006060707070E0E0000001F1F2525252A2A0000004E4E4F4F4F4040000000",
"000006060707070E0E0000001F1F2525252A2A0000004E4E4F4F4F4040000000",
"000006060707070E0E0000001F1F2525252A2A0000004E4E4F4F4F4040000000",
"000006060707070E0E0000001F1F2525252A2A0000004E4E4F4F4F4040000000",
"000006060707070E0E0000001F1F2525252A2A0000004E4E4F4F4F4040000000",
"000006060707070E0E0000001F1F2525252A2A0000004E4E4F4F4F4040000000",
"000006060707070E0E0000001F1F2525252A2A0000004E4E4F4F4F4040000000",
"000006060707070E0E0000001F1F2525252A2A0000004E4E4F4F4F4040000000",
"000006060707070E0E0000001F1F2525252A2A0000004E4E4F4F4F4040000000",
"000006060707070E0E0000001F1F2525252A2A0000004E4E4F4F4F4040000000",
"000006060707070E0E0000001F1F2525252A2A0000004E4E4F4F4F4040000000",
"000006060707070E0E0000001F1F2525252A2A0000004E4E4F4F4F4040000000",
"000006060707070E0E0000001F1F2525252A2A0000004E4E4F4F4F4040000000",
"000006060707070E0E0000001F1F2525252A2A0000004E4E4F4F4F4040000000",
"000004060707070E0D0000001D1F2525252A230000004C4E4F4F4F4042000000",
"000001030707070C11000000171B2525252118000000494B4F4F4F433E000000",
"0000000000000000000000000000000000000000000000000000000000000000",
"0000000000000000000000000000000000000000000000000000000000000000"
};
