#define xbm_spray_mask_width 20
#define xbm_spray_mask_height 20
static unsigned char xbm_spray_mask_bits[] = {
 0x03, 0x00, 0x00, 0x07, 0x00, 0x00, 0x0F, 0x00, 0x00, 0x1F, 0x00, 0x00,
 0x3F, 0x00, 0x00, 0x7F, 0x00, 0x00, 0xFF, 0xFC, 0x0F, 0xFF, 0xFD, 0x0F,
 0xFF, 0xFF, 0x0F, 0xFF, 0xFF, 0x0F, 0x7F, 0xFC, 0x0F, 0xF7, 0xFC, 0x0F,
 0xF3, 0xFC, 0x0F, 0xE0, 0xFD, 0x0F, 0xE0, 0xFD, 0x0F, 0xC0, 0xFD, 0x0F,
 0x00, 0x00, 0x00, 0x00, 0x00, 0x00, 0x00, 0x00, 0x00, 0x00, 0x00, 0x00
 };
