#define xbm_picker_width 17
#define xbm_picker_height 17
#define xbm_picker_x_hot 2
#define xbm_picker_y_hot 16
static unsigned char xbm_picker_bits[] = {
 0x00, 0x70, 0x00, 0x00, 0x88, 0x00, 0x00, 0x04, 0x01, 0x00, 0x07, 0x01,
 0x80, 0x00, 0x01, 0x00, 0x81, 0x00, 0x00, 0x62, 0x00, 0x00, 0x27, 0x00,
 0x80, 0x2B, 0x00, 0xC0, 0x11, 0x00, 0xE0, 0x00, 0x00, 0x70, 0x00, 0x00,
 0x38, 0x00, 0x00, 0x1C, 0x00, 0x00, 0x0C, 0x00, 0x00, 0x02, 0x00, 0x00,
 0x00, 0x00, 0x00 };
