#define xbm_backslash_mask_width 20
#define xbm_backslash_mask_height 20
static unsigned char xbm_backslash_mask_bits[] = {
   0x03, 0x00, 0x00, 0x07, 0x00, 0x00, 0x0f, 0x00, 0x00, 0x1f, 0x00, 0x00,
   0x3f, 0x00, 0x00, 0x7f, 0x00, 0x00, 0xff, 0x0c, 0x00, 0xff, 0x1d, 0x00,
   0xff, 0x3b, 0x00, 0xff, 0x73, 0x00, 0x7f, 0xe0, 0x00, 0xf7, 0xc0, 0x01,
   0xf3, 0x80, 0x03, 0xe0, 0x01, 0x07, 0xe0, 0x01, 0x0e, 0xc0, 0x01, 0x0c,
   0x00, 0x00, 0x00, 0x00, 0x00, 0x00, 0x00, 0x00, 0x00, 0x00, 0x00, 0x00 };
