#define xbm_backslash_width 20
#define xbm_backslash_height 20
static unsigned char xbm_backslash_bits[] = {
   0x00, 0x00, 0x00, 0x02, 0x00, 0x00, 0x06, 0x00, 0x00, 0x0e, 0x00, 0x00,
   0x1e, 0x00, 0x00, 0x3e, 0x00, 0x00, 0x7e, 0x00, 0x00, 0xfe, 0x08, 0x00,
   0xfe, 0x11, 0x00, 0x3e, 0x20, 0x00, 0x36, 0x40, 0x00, 0x62, 0x80, 0x00,
   0x60, 0x00, 0x01, 0xc0, 0x00, 0x02, 0xc0, 0x00, 0x04, 0x00, 0x00, 0x00,
   0x00, 0x00, 0x00, 0x00, 0x00, 0x00, 0x00, 0x00, 0x00, 0x00, 0x00, 0x00 };
