#define xbm_patterns_width 80
#define xbm_patterns_height 80
static unsigned char xbm_patterns_bits[] = {
 0x00, 0x11, 0x11, 0x55, 0x55, 0x55, 0x55, 0x55, 0xAA, 0x33, 0x00, 0x00,
 0x00, 0x00, 0x00, 0x22, 0x22, 0xAA, 0x55, 0x33, 0x00, 0x00, 0x44, 0x44,
 0x55, 0x55, 0x55, 0x55, 0xAA, 0xCC, 0x00, 0x00, 0x00, 0x00, 0x00, 0x00,
 0x88, 0x88, 0x55, 0xCC, 0x00, 0x11, 0x11, 0x55, 0x55, 0x55, 0x55, 0x55,
 0xAA, 0x33, 0x00, 0x00, 0x00, 0x00, 0x00, 0x22, 0x22, 0xAA, 0x55, 0x33,
 0x00, 0x00, 0x44, 0x44, 0x55, 0x55, 0x55, 0x55, 0xAA, 0xCC, 0x00, 0x00,
 0x00, 0x00, 0x00, 0x00, 0x88, 0x88, 0x55, 0xCC, 0xC3, 0xC0, 0x40, 0x44,
 0xC1, 0xE3, 0x00, 0x30, 0x00, 0x33, 0xE1, 0x60, 0x20, 0x22, 0x63, 0xF7,
 0x22, 0xCC, 0x66, 0x0C, 0xF0, 0x30, 0x10, 0x11, 0x36, 0x7F, 0x11, 0x03,
 0x66, 0x33, 0x78, 0x18, 0x08, 0x88, 0x1C, 0x3E, 0x88, 0x00, 0x00, 0xC0,
 0x3C, 0x0C, 0x04, 0x44, 0x1C, 0x3E, 0x00, 0x30, 0x00, 0x33, 0x1E, 0x06,
 0x02, 0x22, 0x36, 0x7F, 0x22, 0xCC, 0x66, 0x0C, 0x0F, 0x03, 0x01, 0x11,
 0x63, 0xF7, 0x11, 0x03, 0x66, 0x33, 0x87, 0x81, 0x80, 0x88, 0xC1, 0xE3,
 0x08, 0x00, 0x00, 0xC0, 0x0F, 0x03, 0x01, 0x11, 0x41, 0x55, 0x00, 0x6C,
 0x0F, 0x03, 0x1E, 0x06, 0x02, 0x22, 0x22, 0x22, 0x08, 0xC6, 0x0F, 0x0C,
 0x3C, 0x0C, 0x04, 0x44, 0x14, 0x55, 0x11, 0x93, 0x0F, 0x30, 0x78, 0x18,
 0x08, 0x88, 0x08, 0x88, 0x22, 0x39, 0x0F, 0xC0, 0xF0, 0x30, 0x10, 0x11,
 0x14, 0x55, 0x00, 0x6C, 0xF0, 0x03, 0xE1, 0x60, 0x20, 0x22, 0x22, 0x22,
 0x88, 0xC6, 0xF0, 0x0C, 0xC3, 0xC0, 0x40, 0x44, 0x41, 0x55, 0x11, 0x93,
 0xF0, 0x30, 0x87, 0x81, 0x80, 0x88, 0x80, 0x88, 0x22, 0x39, 0xF0, 0xC0,
 0x00, 0x00, 0x00, 0x02, 0x22, 0xFF, 0x11, 0x10, 0x00, 0x88, 0xFF, 0xFF,
 0xFF, 0x02, 0x22, 0xFF, 0x00, 0x38, 0x00, 0x88, 0x00, 0x00, 0x00, 0x02,
 0x22, 0x03, 0x10, 0x7C, 0x00, 0x44, 0x00, 0x00, 0xFF, 0x02, 0x22, 0x03,
 0x00, 0xFE, 0x18, 0x44, 0x00, 0x00, 0x00, 0x02, 0x22, 0x03, 0x55, 0xEF,
 0x18, 0x22, 0x00, 0xFF, 0xFF, 0x02, 0x22, 0x03, 0x00, 0xC7, 0x00, 0x22,
 0x00, 0x00, 0x00, 0x02, 0x22, 0x03, 0x10, 0x83, 0x00, 0x11, 0x00, 0x00,
 0xFF, 0x02, 0x22, 0x03, 0x00, 0x01, 0x00, 0x11, 0x00, 0x00, 0x22, 0x02,
 0x22, 0x02, 0x22, 0x00, 0x08, 0x11, 0x55, 0x55, 0xDD, 0x00, 0x00, 0x55,
 0x55, 0x55, 0x14, 0x11, 0x00, 0x00, 0x22, 0x02, 0x22, 0x02, 0x22, 0x00,
 0x2A, 0x22, 0x00, 0x00, 0x22, 0x00, 0x00, 0x00, 0x00, 0x11, 0x55, 0x22,
 0x00, 0x00, 0x22, 0x02, 0x22, 0x02, 0x22, 0x82, 0x2A, 0x44, 0x00, 0x55,
 0xDD, 0x00, 0x00, 0x00, 0x55, 0x44, 0x14, 0x44, 0x00, 0x00, 0x22, 0x02,
 0x22, 0x02, 0x22, 0x28, 0x08, 0x88, 0x00, 0x00, 0x22, 0x00, 0x00, 0x00,
 0x00, 0x10, 0x00, 0x88, 0x00, 0x00, 0xAA, 0x06, 0x66, 0x02, 0x22, 0x08,
 0x08, 0xC0, 0xFF, 0xFF, 0xAA, 0x06, 0x66, 0xFF, 0xFF, 0x1C, 0x1C, 0x30,
 0xFF, 0xFF, 0xAA, 0x06, 0x66, 0x02, 0x22, 0x3E, 0x3E, 0x0C, 0x00, 0x00,
 0xAA, 0x06, 0x66, 0x02, 0x22, 0xFF, 0x7F, 0x03, 0x00, 0x00, 0xAA, 0x06,
 0x66, 0x02, 0x22, 0x3E, 0x3E, 0xC0, 0x00, 0xFF, 0xAA, 0x06, 0x66, 0x02,
 0xFF, 0x1C, 0x1C, 0x30, 0x00, 0xFF, 0xAA, 0x06, 0x66, 0x02, 0x22, 0x08,
 0x08, 0x0C, 0x00, 0x00, 0xAA, 0x06, 0x66, 0x02, 0x22, 0x08, 0x00, 0x03,
 0x71, 0x18, 0x00, 0x00, 0x80, 0x11, 0xEE, 0x08, 0x08, 0x38, 0xBB, 0x0C,
 0x10, 0x00, 0x80, 0x11, 0x19, 0x14, 0x14, 0x22, 0x17, 0x06, 0x20, 0x20,
 0xAA, 0x11, 0x1F, 0x22, 0x22, 0x0E, 0x0E, 0x13, 0x40, 0x50, 0x14, 0x11,
 0x1F, 0xC1, 0xC9, 0x22, 0x1D, 0x30, 0x00, 0x00, 0x08, 0x0A, 0xEE, 0x22,
 0x22, 0x38, 0xBB, 0x60, 0x04, 0x00, 0x08, 0x04, 0x91, 0x14, 0x14, 0x22,
 0xD1, 0xC0, 0x02, 0x02, 0xAA, 0x40, 0xF1, 0x08, 0x08, 0x0E, 0xE0, 0x80,
 0x01, 0x05, 0x41, 0xA0, 0xF1, 0x08, 0x08, 0x22, 0xFF, 0x0F, 0x00, 0x00,
 0x00, 0x00, 0xC7, 0x08, 0x08, 0x00, 0xFF, 0x0F, 0x10, 0x6C, 0x10, 0x38,
 0x01, 0x14, 0x14, 0x77, 0xFF, 0x0F, 0x38, 0xFE, 0x38, 0x38, 0x01, 0x22,
 0x22, 0x22, 0xFF, 0x0F, 0x7C, 0xFE, 0x7C, 0xD6, 0x82, 0x41, 0x49, 0xAA,
 0x00, 0x0F, 0x7C, 0x7C, 0xFE, 0xFE, 0x7C, 0x22, 0x22, 0x88, 0x00, 0x0F,
 0x38, 0x38, 0xD6, 0xD6, 0x10, 0x14, 0x14, 0xDD, 0x00, 0x0F, 0x10, 0x10,
 0x10, 0x10, 0x10, 0x08, 0x08, 0x00, 0x00, 0x0F, 0x00, 0x00, 0x10, 0x10,
 0x28, 0x00, 0x00, 0x00, 0xFF, 0x00, 0x00, 0x21, 0x88, 0x10, 0x08, 0x88,
 0x20, 0x04, 0x81, 0x7E, 0x7E, 0x12, 0x44, 0x20, 0x04, 0x88, 0x20, 0x24,
 0xA5, 0x42, 0x42, 0x84, 0x22, 0x50, 0x0A, 0x8F, 0x20, 0xEE, 0x81, 0x5A,
 0x42, 0x48, 0x11, 0x88, 0x11, 0x88, 0xFF, 0x20, 0x81, 0x5A, 0x42, 0x21,
 0x44, 0x05, 0xA0, 0x88, 0x02, 0x04, 0xBD, 0x42, 0x42, 0x12, 0x88, 0x02,
 0x40, 0x88, 0x02, 0x77, 0x81, 0x7E, 0x7E, 0x84, 0x11, 0x04, 0x20, 0xF8,
 0x02, 0x24, 0xFF, 0x00, 0x00, 0x48, 0x22, 0x08, 0x10, 0x88, 0xFF, 0x20,
 0x00, 0x00, 0x11, 0x80, 0x01, 0x77, 0x71, 0x14, 0x00, 0x22, 0x02, 0xAA,
 0x44, 0x80, 0x01, 0x51, 0x33, 0x36, 0x00, 0x2E, 0x00, 0x00, 0x11, 0xC0,
 0x03, 0x57, 0x17, 0x77, 0xFF, 0x22, 0x00, 0x55, 0x44, 0x21, 0x84, 0x00,
 0x00, 0x00, 0x88, 0x3A, 0x00, 0x00, 0x11, 0x12, 0x48, 0x75, 0x74, 0x77,
 0xAA, 0x22, 0x00, 0xAA, 0x44, 0x0C, 0x30, 0x45, 0x66, 0x36, 0x22, 0x2E,
 0x00, 0x00, 0x11, 0x30, 0x0C, 0x77, 0x47, 0x14, 0xFF, 0x22, 0x00, 0x55,
 0x44, 0x40, 0x02, 0x00, 0x00, 0x00, 0x00, 0x3A };
