#define xbm_slash_mask_width 20
#define xbm_slash_mask_height 20
static unsigned char xbm_slash_mask_bits[] = {
   0x03, 0x00, 0x00, 0x07, 0x00, 0x00, 0x0f, 0x00, 0x00, 0x1f, 0x00, 0x00,
   0x3f, 0x00, 0x00, 0x7f, 0x00, 0x00, 0xff, 0x00, 0x0c, 0xff, 0x01, 0x0e,
   0xff, 0x03, 0x07, 0xff, 0x83, 0x03, 0x7f, 0xc0, 0x01, 0xf7, 0xe0, 0x00,
   0xf3, 0x70, 0x00, 0xe0, 0x39, 0x00, 0xe0, 0x1d, 0x00, 0xc0, 0x0d, 0x00,
   0x00, 0x00, 0x00, 0x00, 0x00, 0x00, 0x00, 0x00, 0x00, 0x00, 0x00, 0x00 };
