#define xbm_flood_width 20
#define xbm_flood_height 20
static unsigned char xbm_flood_bits[] = {
   0x00, 0x00, 0x00, 0x00, 0x00, 0x00, 0x00, 0x00, 0x00, 0x00, 0x1e, 0x00,
   0x80, 0x29, 0x00, 0x40, 0x48, 0x00, 0x20, 0x84, 0x00, 0xf0, 0x03, 0x01,
   0xf8, 0x01, 0x02, 0x7c, 0x00, 0x04, 0x3c, 0x00, 0x04, 0x5e, 0x00, 0x04,
   0x8e, 0x00, 0x02, 0x0e, 0x01, 0x02, 0x0e, 0x02, 0x01, 0x0e, 0xc4, 0x00,
   0x0e, 0x38, 0x00, 0x04, 0x00, 0x00, 0x04, 0x00, 0x00, 0x00, 0x00, 0x00 };
