#define xbm_move_width 20
#define xbm_move_height 20
static unsigned char xbm_move_bits[] = {
   0x00, 0x00, 0x00, 0x00, 0x00, 0x00, 0x00, 0x04, 0x00, 0x00, 0x0e, 0x00,
   0x00, 0x1f, 0x00, 0x80, 0x3f, 0x00, 0x00, 0x04, 0x00, 0x20, 0x84, 0x00,
   0x30, 0x84, 0x01, 0x38, 0x84, 0x03, 0xfc, 0xff, 0x07, 0x38, 0x84, 0x03,
   0x30, 0x84, 0x01, 0x20, 0x84, 0x00, 0x00, 0x04, 0x00, 0x80, 0x3f, 0x00,
   0x00, 0x1f, 0x00, 0x00, 0x0e, 0x00, 0x00, 0x04, 0x00, 0x00, 0x00, 0x00 };
