#define xbm_vertical_mask_width 20
#define xbm_vertical_mask_height 20
static unsigned char xbm_vertical_mask_bits[] = {
   0x03, 0x00, 0x00, 0x07, 0x00, 0x00, 0x0f, 0x00, 0x00, 0x1f, 0x00, 0x00,
   0x3f, 0x00, 0x00, 0x7f, 0x00, 0x00, 0xff, 0xe0, 0x01, 0xff, 0xe1, 0x01,
   0xff, 0xe3, 0x01, 0xff, 0xe3, 0x01, 0x7f, 0xe0, 0x01, 0xf7, 0xe0, 0x01,
   0xf3, 0xe0, 0x01, 0xe0, 0xe1, 0x01, 0xe0, 0xe1, 0x01, 0xc0, 0xe1, 0x01,
   0x00, 0x00, 0x00, 0x00, 0x00, 0x00, 0x00, 0x00, 0x00, 0x00, 0x00, 0x00 };
