#define xbm_grad_mask_width 20
#define xbm_grad_mask_height 20
static unsigned char xbm_grad_mask_bits[] = {
 0x02, 0x00, 0x00, 0x07, 0xE0, 0x00, 0x0F, 0xE0, 0x00, 0x1F, 0xF8, 0x03,
 0x3F, 0xF8, 0x03, 0x7F, 0xF8, 0x03, 0xFF, 0xE0, 0x00, 0xFF, 0xE1, 0x00,
 0xFF, 0xE3, 0x00, 0xFF, 0xE3, 0x00, 0x7F, 0xE0, 0x00, 0xF7, 0xE0, 0x00,
 0xF3, 0xE0, 0x00, 0xE0, 0xE1, 0x00, 0xE0, 0xE1, 0x00, 0xC0, 0xF8, 0x03,
 0x00, 0xF8, 0x03, 0x00, 0xF8, 0x03, 0x00, 0xE0, 0x00, 0x00, 0xE0, 0x00 };
