#define xbm_circle_mask_width 20
#define xbm_circle_mask_height 20
static unsigned char xbm_circle_mask_bits[] = {
 0x02, 0x00, 0x00, 0x07, 0x00, 0x00, 0x0F, 0x00, 0x00, 0x1F, 0x00, 0x00,
 0x3F, 0x00, 0x00, 0x7F, 0x00, 0x00, 0xFF, 0xC0, 0x00, 0xFF, 0xF1, 0x03,
 0xFF, 0xFB, 0x07, 0xFF, 0x3B, 0x07, 0x7F, 0x1C, 0x0E, 0xF7, 0x1C, 0x0E,
 0xF3, 0x38, 0x07, 0xE0, 0xF9, 0x07, 0xE0, 0xF1, 0x03, 0xC0, 0xC1, 0x00,
 0x00, 0x00, 0x00, 0x00, 0x00, 0x00, 0x00, 0x00, 0x00, 0x00, 0x00, 0x00
 };
