#define xbm_n7x7_width 7
#define xbm_n7x7_height 70
static unsigned char xbm_n7x7_bits[] = {
 0x3C, 0x66, 0x66, 0x66, 0x66, 0x66, 0x3C, 0x18, 0x1C, 0x18, 0x18, 0x18,
 0x18, 0x18, 0x3C, 0x66, 0x60, 0x30, 0x18, 0x0C, 0x7E, 0x3C, 0x66, 0x60,
 0x38, 0x60, 0x66, 0x3C, 0x30, 0x38, 0x3C, 0x36, 0x7E, 0x30, 0x30, 0x7E,
 0x06, 0x3E, 0x60, 0x60, 0x66, 0x3C, 0x38, 0x0C, 0x06, 0x3E, 0x66, 0x66,
 0x3C, 0x7E, 0x60, 0x30, 0x30, 0x18, 0x18, 0x18, 0x3C, 0x66, 0x66, 0x3C,
 0x66, 0x66, 0x3C, 0x3C, 0x66, 0x66, 0x7C, 0x60, 0x30, 0x1C };
