#define xbm_clone_width 20
#define xbm_clone_height 20
static unsigned char xbm_clone_bits[] = {
 0x00, 0x00, 0x00, 0x02, 0x00, 0x00, 0x06, 0x00, 0x00, 0x0E, 0x00, 0x00,
 0x1E, 0x00, 0x00, 0x3E, 0x00, 0x00, 0x7E, 0x00, 0x00, 0xFE, 0x00, 0x00,
 0xFE, 0x71, 0x00, 0x3E, 0x70, 0x00, 0x36, 0x20, 0x00, 0x62, 0xF8, 0x00,
 0x60, 0x20, 0x00, 0xC0, 0x50, 0x00, 0xC0, 0x88, 0x00, 0x00, 0x00, 0x00,
 0x00, 0x00, 0x00, 0x00, 0x00, 0x00, 0x00, 0x00, 0x00, 0x00, 0x00, 0x00
 };
