#define xbm_move_mask_width 20
#define xbm_move_mask_height 20
static unsigned char xbm_move_mask_bits[] = {
   0x00, 0x00, 0x00, 0x00, 0x04, 0x00, 0x00, 0x0e, 0x00, 0x00, 0x1f, 0x00,
   0x80, 0x3f, 0x00, 0xc0, 0x7f, 0x00, 0xe0, 0xff, 0x00, 0x70, 0xce, 0x01,
   0x78, 0xce, 0x03, 0xfc, 0xff, 0x07, 0xfe, 0xff, 0x0f, 0xfc, 0xff, 0x07,
   0x78, 0xce, 0x03, 0x70, 0xce, 0x01, 0xe0, 0xff, 0x00, 0xc0, 0x7f, 0x00,
   0x80, 0x3f, 0x00, 0x00, 0x1f, 0x00, 0x00, 0x0e, 0x00, 0x00, 0x04, 0x00 };
