#define xbm_circle_width 20
#define xbm_circle_height 20
static unsigned char xbm_circle_bits[] = {
   0x00, 0x00, 0x00, 0x02, 0x00, 0x00, 0x06, 0x00, 0x00, 0x0e, 0x00, 0x00,
   0x1e, 0x00, 0x00, 0x3e, 0x00, 0x00, 0x7e, 0x00, 0x00, 0xfe, 0xc0, 0x00,
   0xfe, 0x31, 0x03, 0x3e, 0x10, 0x02, 0x36, 0x08, 0x04, 0x62, 0x08, 0x04,
   0x60, 0x10, 0x02, 0xc0, 0x30, 0x03, 0xc0, 0xc0, 0x00, 0x00, 0x00, 0x00,
   0x00, 0x00, 0x00, 0x00, 0x00, 0x00, 0x00, 0x00, 0x00, 0x00, 0x00, 0x00 };
