#define xbm_square_width 20
#define xbm_square_height 20
static unsigned char xbm_square_bits[] = {
   0x00, 0x00, 0x00, 0x02, 0x00, 0x00, 0x06, 0x00, 0x00, 0x0e, 0x00, 0x00,
   0x1e, 0x00, 0x00, 0x3e, 0x00, 0x00, 0x7e, 0x00, 0x00, 0xfe, 0xf8, 0x07,
   0xfe, 0x09, 0x04, 0x3e, 0x08, 0x04, 0x36, 0x08, 0x04, 0x62, 0x08, 0x04,
   0x60, 0x08, 0x04, 0xc0, 0x08, 0x04, 0xc0, 0xf8, 0x07, 0x00, 0x00, 0x00,
   0x00, 0x00, 0x00, 0x00, 0x00, 0x00, 0x00, 0x00, 0x00, 0x00, 0x00, 0x00 };
