#define xbm_picker_mask_width 17
#define xbm_picker_mask_height 17
#define xbm_picker_mask_x_hot 2
#define xbm_picker_mask_y_hot 16
static unsigned char xbm_picker_mask_bits[] = {
  0x00, 0x70, 0x00, 0x00, 0xf8, 0x00, 0x00, 0xfc, 0x01, 0x00, 0xff, 0x01,
  0x80, 0xff, 0x01, 0x00, 0xff, 0x00, 0x00, 0x7f, 0x00, 0x80, 0x3f, 0x00,
  0xc0, 0x3f, 0x00, 0xe0, 0x13, 0x00, 0xf0, 0x01, 0x00, 0xf8, 0x00, 0x00,
  0x7c, 0x00, 0x00, 0x3e, 0x00, 0x00, 0x1e, 0x00, 0x00, 0x0d, 0x00, 0x00,
  0x02, 0x00, 0x00, };
