#define xbm_ring4_width 9
#define xbm_ring4_height 9
#define xbm_ring4_x_hot 4
#define xbm_ring4_y_hot 4
static unsigned char xbm_ring4_bits[] = {
 0x00, 0x00, 0x38, 0x00, 0x44, 0x00, 0x82, 0x00, 0x82, 0x00, 0x82, 0x00,
 0x44, 0x00, 0x38, 0x00, 0x00, 0x00 };
