#define xbm_grad_width 20
#define xbm_grad_height 20
static unsigned char xbm_grad_bits[] = {
 0x00, 0x00, 0x00, 0x02, 0x00, 0x00, 0x06, 0x40, 0x00, 0x0E, 0x40, 0x00,
 0x1E, 0xF0, 0x01, 0x3E, 0x40, 0x00, 0x7E, 0x40, 0x00, 0xFE, 0x00, 0x00,
 0xFE, 0x41, 0x00, 0x3E, 0x00, 0x00, 0x36, 0x40, 0x00, 0x62, 0x00, 0x00,
 0x60, 0x40, 0x00, 0xC0, 0x00, 0x00, 0xC0, 0x40, 0x00, 0x00, 0x40, 0x00,
 0x00, 0xF0, 0x01, 0x00, 0x40, 0x00, 0x00, 0x40, 0x00, 0x00, 0x00, 0x00 };
