#define xbm_polygon_width 20
#define xbm_polygon_height 20
static unsigned char xbm_polygon_bits[] = {
 0x00, 0x00, 0x00, 0x00, 0x00, 0x00, 0x00, 0x00, 0x00, 0x00, 0x00, 0x00,
 0x00, 0x04, 0x00, 0x00, 0x04, 0x00, 0x00, 0x04, 0x00, 0x00, 0x04, 0x00,
 0x00, 0x00, 0x00, 0x00, 0x00, 0x00, 0xF0, 0xE0, 0x01, 0x00, 0x00, 0x00,
 0x00, 0x00, 0x00, 0x00, 0x04, 0x04, 0x00, 0x04, 0x06, 0x00, 0x04, 0x05,
 0x00, 0x84, 0x04, 0x00, 0x40, 0x04, 0x00, 0xE0, 0x07, 0x00, 0x00, 0x00
 };
