#define xbm_flood_mask_width 20
#define xbm_flood_mask_height 20
static unsigned char xbm_flood_mask_bits[] = {
   0x00, 0x00, 0x00, 0x00, 0x00, 0x00, 0x00, 0x1e, 0x00, 0x80, 0x3f, 0x00,
   0xc0, 0x7f, 0x00, 0xe0, 0xff, 0x00, 0xf0, 0xff, 0x01, 0xf8, 0xff, 0x03,
   0xfc, 0xff, 0x07, 0xfe, 0xff, 0x0f, 0xfe, 0xff, 0x0f, 0xff, 0xff, 0x0f,
   0xdf, 0xff, 0x07, 0x9f, 0xff, 0x07, 0x1f, 0xff, 0x03, 0x1f, 0xfe, 0x01,
   0x1f, 0xfc, 0x00, 0x0e, 0x38, 0x00, 0x0e, 0x00, 0x00, 0x04, 0x00, 0x00 };
