#define xbm_smudge_mask_width 20
#define xbm_smudge_mask_height 20
static unsigned char xbm_smudge_mask_bits[] = {
 0x02, 0x00, 0x00, 0x07, 0x00, 0x00, 0x0F, 0x00, 0x00, 0x1F, 0x00, 0x00,
 0x3F, 0x00, 0x00, 0x7F, 0x00, 0x00, 0xFF, 0x80, 0x0F, 0xFF, 0xC1, 0x0F,
 0xFF, 0xE3, 0x0F, 0xFF, 0xF3, 0x0F, 0x7F, 0xF8, 0x0F, 0xF7, 0xFC, 0x07,
 0xF3, 0xFC, 0x03, 0xE0, 0xFD, 0x01, 0xE0, 0xF9, 0x00, 0xC0, 0x71, 0x00,
 0x00, 0x00, 0x00, 0x00, 0x00, 0x00, 0x00, 0x00, 0x00, 0x00, 0x00, 0x00
 };
