#define xbm_clone_mask_width 20
#define xbm_clone_mask_height 20
static unsigned char xbm_clone_mask_bits[] = {
 0x03, 0x00, 0x00, 0x07, 0x00, 0x00, 0x0F, 0x00, 0x00, 0x1F, 0x00, 0x00,
 0x3F, 0x00, 0x00, 0x7F, 0x00, 0x00, 0xFF, 0x00, 0x00, 0xFF, 0x71, 0x00,
 0xFF, 0xFB, 0x00, 0xFF, 0xFB, 0x00, 0x7F, 0xF8, 0x00, 0xF7, 0xFC, 0x01,
 0xF3, 0xF8, 0x00, 0xE0, 0xF9, 0x00, 0xE0, 0xDD, 0x01, 0xC0, 0x89, 0x00,
 0x00, 0x00, 0x00, 0x00, 0x00, 0x00, 0x00, 0x00, 0x00, 0x00, 0x00, 0x00
 };
