#define xbm_select_mask_width 20
#define xbm_select_mask_height 20
static unsigned char xbm_select_mask_bits[] = {
   0x00, 0x00, 0x00, 0x00, 0x00, 0x00, 0x00, 0x00, 0x00, 0x00, 0x0e, 0x00,
   0x00, 0x0e, 0x00, 0x00, 0x0e, 0x00, 0x00, 0x0e, 0x00, 0x00, 0x0e, 0x00,
   0x00, 0x0e, 0x00, 0xf8, 0xf1, 0x03, 0xf8, 0xf1, 0x03, 0xf8, 0xf1, 0x03,
   0x00, 0x0e, 0x00, 0x00, 0x0e, 0x00, 0x00, 0x0e, 0x00, 0x00, 0x0e, 0x00,
   0x00, 0x0e, 0x00, 0x00, 0x0e, 0x00, 0x00, 0x00, 0x00, 0x00, 0x00, 0x00 };
