#define xbm_polygon_mask_width 20
#define xbm_polygon_mask_height 20
static unsigned char xbm_polygon_mask_bits[] = {
 0x00, 0x00, 0x00, 0x00, 0x00, 0x00, 0x00, 0x00, 0x00, 0x00, 0x04, 0x00,
 0x00, 0x0E, 0x00, 0x00, 0x0E, 0x00, 0x00, 0x0E, 0x00, 0x00, 0x0E, 0x00,
 0x00, 0x04, 0x00, 0xF0, 0xE0, 0x01, 0xF8, 0xF1, 0x03, 0xF0, 0xE0, 0x01,
 0x00, 0x04, 0x04, 0x00, 0x0E, 0x0E, 0x00, 0x0E, 0x0F, 0x00, 0x8E, 0x0F,
 0x00, 0xCE, 0x0F, 0x00, 0xE4, 0x0F, 0x00, 0xF0, 0x0F, 0x00, 0xE0, 0x0F
 };
