#define xbm_slash_width 20
#define xbm_slash_height 20
static unsigned char xbm_slash_bits[] = {
   0x00, 0x00, 0x00, 0x02, 0x00, 0x00, 0x06, 0x00, 0x00, 0x0e, 0x00, 0x00,
   0x1e, 0x00, 0x00, 0x3e, 0x00, 0x00, 0x7e, 0x00, 0x00, 0xfe, 0x00, 0x04,
   0xfe, 0x01, 0x02, 0x3e, 0x00, 0x01, 0x36, 0x80, 0x00, 0x62, 0x40, 0x00,
   0x60, 0x20, 0x00, 0xc0, 0x10, 0x00, 0xc0, 0x08, 0x00, 0x00, 0x00, 0x00,
   0x00, 0x00, 0x00, 0x00, 0x00, 0x00, 0x00, 0x00, 0x00, 0x00, 0x00, 0x00 };
