#define xbm_vertical_width 20
#define xbm_vertical_height 20
static unsigned char xbm_vertical_bits[] = {
   0x00, 0x00, 0x00, 0x02, 0x00, 0x00, 0x06, 0x00, 0x00, 0x0e, 0x00, 0x00,
   0x1e, 0x00, 0x00, 0x3e, 0x00, 0x00, 0x7e, 0x00, 0x00, 0xfe, 0xc0, 0x00,
   0xfe, 0xc1, 0x00, 0x3e, 0xc0, 0x00, 0x36, 0xc0, 0x00, 0x62, 0xc0, 0x00,
   0x60, 0xc0, 0x00, 0xc0, 0xc0, 0x00, 0xc0, 0xc0, 0x00, 0x00, 0x00, 0x00,
   0x00, 0x00, 0x00, 0x00, 0x00, 0x00, 0x00, 0x00, 0x00, 0x00, 0x00, 0x00 };
