#define xbm_horizontal_mask_width 20
#define xbm_horizontal_mask_height 20
static unsigned char xbm_horizontal_mask_bits[] = {
   0x03, 0x00, 0x00, 0x07, 0x00, 0x00, 0x0f, 0x00, 0x00, 0x1f, 0x00, 0x00,
   0x3f, 0x00, 0x00, 0x7f, 0x00, 0x00, 0xff, 0x00, 0x00, 0xff, 0x01, 0x00,
   0xff, 0x03, 0x00, 0xff, 0xff, 0x0f, 0x7f, 0xfc, 0x0f, 0xf7, 0xfc, 0x0f,
   0xf3, 0xfc, 0x0f, 0xe0, 0x01, 0x00, 0xe0, 0x01, 0x00, 0xc0, 0x01, 0x00,
   0x00, 0x00, 0x00, 0x00, 0x00, 0x00, 0x00, 0x00, 0x00, 0x00, 0x00, 0x00 };
