#define xbm_ring4_mask_width 9
#define xbm_ring4_mask_height 9
#define xbm_ring4_mask_x_hot 4
#define xbm_ring4_mask_y_hot 4
static unsigned char xbm_ring4_mask_bits[] = {
 0x38, 0x00, 0x7C, 0x00, 0xFE, 0x00, 0xC7, 0x01, 0xC7, 0x01, 0xC7, 0x01,
 0xFE, 0x00, 0x7C, 0x00, 0x38, 0x00 };
