#define xbm_line_width 20
#define xbm_line_height 20
static unsigned char xbm_line_bits[] = {
 0x00, 0x00, 0x00, 0x02, 0x00, 0x00, 0x06, 0xF0, 0x03, 0x0E, 0xF0, 0x03,
 0x1E, 0x80, 0x03, 0x3E, 0xF0, 0x03, 0x7E, 0xF0, 0x03, 0xFE, 0xC0, 0x03,
 0xFE, 0xF1, 0x03, 0x3E, 0xF0, 0x03, 0x36, 0x80, 0x03, 0x62, 0xF0, 0x03,
 0x60, 0xF0, 0x03, 0xC0, 0xC0, 0x03, 0xC0, 0xF0, 0x03, 0x00, 0xF0, 0x03,
 0x00, 0x80, 0x03, 0x00, 0xF0, 0x03, 0x00, 0xF0, 0x03, 0x00, 0x00, 0x00
 };
