#define xbm_picker_width 17
#define xbm_picker_height 17
#define xbm_picker_x_hot 2
#define xbm_picker_y_hot 16
static unsigned char xbm_picker_bits[] = {
  0xff, 0x8f, 0x01, 0xff, 0x77, 0x01, 0xff, 0xfb, 0x00, 0xff, 0xf8, 0x00,
  0x7f, 0xff, 0x00, 0xff, 0x7e, 0x01, 0xff, 0x9d, 0x01, 0xff, 0xd8, 0x01,
  0x7f, 0xd4, 0x01, 0x3f, 0xee, 0x01, 0x1f, 0xff, 0x01, 0x8f, 0xff, 0x01,
  0xc7, 0xff, 0x01, 0xe3, 0xff, 0x01, 0xf3, 0xff, 0x01, 0xfd, 0xff, 0x01,
  0xff, 0xff, 0x01, };
