#define xbm_line_mask_width 20
#define xbm_line_mask_height 20
static unsigned char xbm_line_mask_bits[] = {
 0x02, 0x00, 0x00, 0x07, 0xF8, 0x07, 0x0F, 0xF8, 0x07, 0x1F, 0xF8, 0x07,
 0x3F, 0xF8, 0x07, 0x7F, 0xF8, 0x07, 0xFF, 0xF8, 0x07, 0xFF, 0xF9, 0x07,
 0xFF, 0xFB, 0x07, 0xFF, 0xFB, 0x07, 0x7F, 0xF8, 0x07, 0xF7, 0xF8, 0x07,
 0xF3, 0xF8, 0x07, 0xE0, 0xF9, 0x07, 0xE0, 0xF9, 0x07, 0xC0, 0xF8, 0x07,
 0x00, 0xF8, 0x07, 0x00, 0xF8, 0x07, 0x00, 0xF8, 0x07, 0x00, 0xF8, 0x07
 };
