/* XPM */
static char *xpm_mode_csel_xpm[] = {
"22 22 17 1",
" 	c None",
"B	c #000000",
"C	c #FFFF00",
"D	c #FFED00",
"E	c #FFDB00",
"F	c #FFC800",
"G	c #FFB600",
"H	c #FFA400",
"I	c #FF9200",
"J	c #FF7F00",
"K	c #FF6D00",
"L	c #FF5B00",
"M	c #FF4900",
"N	c #FF3700",
"O	c #FF2400",
"P	c #FF1200",
"Q	c #FF0000",
"                      ",
"                      ",
"                      ",
"      B       B       ",
"      BBBBBBBBB       ",
"      B       B       ",
"                      ",
"  BBBBBBBBBBBBBBBBB   ",
"  BCDEFGHIJKLMNOPQB   ",
"  BCDEFGHIJKLMNOPQB   ",
"  BCDEFGHIJKLMNOPQB   ",
"  BCDEFGHIJKLMNOPQB   ",
"  BCDEFGHIJKLMNOPQB   ",
"  BCDEFGHIJKLMNOPQB   ",
"  BCDEFGHIJKLMNOPQB   ",
"  BCDEFGHIJKLMNOPQB   ",
"  BBBBBBBBBBBBBBBBB   ",
"                      ",
"                      ",
"                      ",
"                      ",
"                      "
};
