/* XPM */
static char *xpm_paste_xpm[] = {
"20 20 10 1",
" 	c None",
"1	c #000000",
"2	c #FFFF92",
"3	c #FFFFFF",
"4	c #49DB00",
"5	c #40CC05",
"6	c #36BD0A",
"7	c #2DAE10",
"8	c #239F15",
"9	c #1A901A",
"                    ",
"                    ",
"       1111         ",
"   111112211111     ",
"  11441211214411    ",
"  14412222221441    ",
"  15411111111541    ",
"  15555555555551    ",
"  16565656565651    ",
"  16666661111111    ",
"  176767613333331   ",
"  1777777133333331  ",
"  18787871333333331 ",
"  18888881311111131 ",
"  19898981333333331 ",
"  11999991333333331 ",
"   1111111311111131 ",
"         1333333331 ",
"         1111111111 ",
"                    "
};
