/* XPM */
static char *xpm_newdir_xpm[] = {
"20 20 11 1",
" 	c None",
"1	c #000000",
"2	c #FFFF92",
"3	c #49DB00",
"4	c #44D303",
"5	c #40CC05",
"6	c #3BC408",
"7	c #36BD0B",
"8	c #32B50D",
"9	c #2DAE10",
"A	c #FFFF00",
"             1A1    ",
"           1 1A1 1  ",
"          1A11A11A1 ",
"   11111   1A1A1A1  ",
"  12222211111AAA1111",
" 12222221AAAAAAAAAAA",
" 122222221111AAA1111",
" 12222222221A1A1A1  ",
" 1222111111A11A11A1 ",
" 1222133333131A1311 ",
" 1221444444441A141  ",
" 12215555555551551  ",
" 1216666666666661   ",
" 1217777777777771   ",
" 118888888888881    ",
" 119999999999991    ",
" 11111111111111     ",
"                    ",
"                    ",
"                    "
};
