/* XPM */
static char *xpm_mode_mask_xpm[] = {
"22 22 4 1",
" 	c None",
"1	c #FFFF00",
"2	c #FF6D00",
"3	c #000000",
"                      ",
"                      ",
"  3333          3 3   ",
"  3111333    3 3 1 3  ",
"  311111133 3 1 1 1   ",
"  3111111111 1 1 1 3  ",
"  311331111 1 1 3 1   ",
"  3113333111 3 3 1 3  ",
"  311133331 3 3 1 1   ",
"  3111133311 3 1 1 3  ",
"  311111111 1 1 1 1   ",
"  3111111111 1 1 1 3  ",
"  311331111 1 1 3 1   ",
"  3113333111 3 3 1 3  ",
"   31133333 3 3 1 3   ",
"   311133333 3 1 1    ",
"    3111333 3 1 1     ",
"     3111111 1 1      ",
"      31111 1 1       ",
"       33111 3        ",
"         33 3         ",
"                      "
};
