/* XPM */
static char *xpm_rotate_as_xpm[] = {
"20 20 4 1",
" 	c None",
"1	c #000000",
"2	c #FFFFFF",
"3	c #FF0000",
"                    ",
" 222111222          ",
" 133333331          ",
" 133333331          ",
" 133333331          ",
" 233333332          ",
" 233333332     11   ",
" 233333332    1111  ",
" 133333331   111111 ",
" 111222111  11111111",
"   11          11   ",
"   11          11   ",
"    11        11    ",
"    11        11    ",
"     111    111     ",
"      11111111      ",
"        1111        ",
"                    ",
"                    ",
"                    "
};
