/* XPM */
static char *xpm_pan_xpm[] = {
"20 20 3 1",
" 	c None",
"1	c #000000",
"2	c #FFFF00",
"         11         ",
"        1111        ",
"       111111       ",
"         11         ",
"         11         ",
"         11         ",
"      11111111      ",
"  1   12222221   1  ",
" 11   12222221   11 ",
"11111112222221111111",
"11111112222221111111",
" 11   12222221   11 ",
"  1   12222221   1  ",
"      11111111      ",
"         11         ",
"         11         ",
"         11         ",
"       111111       ",
"        1111        ",
"         11         "
};
