/* XPM */
static char *xpm_copy_xpm[] = {
"20 20 3 1",
" 	c None",
"1	c #000000",
"2	c #FFFFFF",
"                    ",
"                    ",
"   1111111          ",
"   12222221         ",
"   12221111111      ",
"   122212222221     ",
"   1211122222221    ",
"   12221222222221   ",
"   12221211111121   ",
"   12111222222221   ",
"   12221222222221   ",
"   12221211111121   ",
"   12111222222221   ",
"   12221222222221   ",
"   12221211111121   ",
"   11111222222221   ",
"       1222222221   ",
"       1111111111   ",
"                    ",
"                    "
};
