/* XPM */
static char *xpm_mode_filt_xpm[] = {
"22 22 24 1",
" 	c None",
"B	c #D1B8C0",
"C	c #E3C0BF",
"D	c #EFCEBD",
"E	c #F9DBBD",
"F	c #F3EBC1",
"G	c #E3F5CC",
"H	c #CAFAD9",
"I	c #B3F6EA",
"J	c #ADE7F5",
"K	c #B8D6F8",
"L	c #C7CCF4",
"M	c #CFCBE7",
"N	c #000000",
"O	c #00C000",
"P	c #00CA00",
"Q	c #00D600",
"R	c #00E100",
"S	c #00E900",
"T	c #00EB00",
"U	c #00E800",
"V	c #00D700",
"W	c #00D100",
"X	c #00CF00",
"                      ",
"                      ",
"       BCDEFGHIIJKLM  ",
"      BCDEEFGHIJKLMM  ",
"      BCDEFGHIJJKLM   ",
"     BCDDEFGHIJKLM    ",
"     BCDEFGHIIJKLM    ",
"     BCDEFGHIJKLM     ",
"    BCDEFGGHIJKLM     ",
"    NCDEFGHIJKLLM     ",
"    OPQNFGHIJKLM      ",
"   OPQRRSTNIJKLM      ",
"   OPQRSTURVKNLM      ",
"   OPQRSTURVWXX       ",
"   OPQRSTURVWXX       ",
"   OPQRSTURVWXX       ",
"  OPQRSTTURVWXX       ",
"  OPQRSTURVWXX        ",
"  OPQRSTURVWXX        ",
"  OPQRSTURVWXX        ",
"                      ",
"                      "
};
