/* XPM */
static char *xpm_rect1_xpm[] = {
"20 20 4 1",
" 	c None",
"1	c #000000",
"2	c #FF0000",
"3	c #FFFF00",
"                    ",
"    1111111111111111",
"    1111111111111111",
"    11            11",
"    11            11",
"222222222222222   11",
"222222222222222   11",
"22  11       22   11",
"22  11       22   11",
"22  11       22   11",
"22  11       22   11",
"22  11       22   11",
"22  11       22   11",
"22  11       22   11",
"22  1111111112211111",
"22  1111111112211111",
"22           22     ",
"22           22     ",
"222222222222222     ",
"222222222222222     "
};
