/* XPM */
static char *xpm_close_xpm[] = {
"20 20 3 1",
" 	c None",
"1	c #000000",
"2	c #FF0000",
"                    ",
"                    ",
"                    ",
"                    ",
"      1      1      ",
"     121    121     ",
"    12221  12221    ",
"     1222112221     ",
"      12222221      ",
"       122221       ",
"       122221       ",
"      12222221      ",
"     1222112221     ",
"    12221  12221    ",
"     121    121     ",
"      1      1      ",
"                    ",
"                    ",
"                    ",
"                    "
};
