/* XPM */
static char *xpm_centre_xpm[] = {
"20 20 4 1",
" 	c None",
"1	c #000000",
"2	c #B4B4B4",
"3	c #FFFF00",
"                    ",
"                    ",
"  1111111111111111  ",
"  1222222222222221  ",
"  1222222222222221  ",
"  1222222222222221  ",
"  1222222222222221  ",
"  1222211111122221  ",
"  1222213333122221  ",
"  1222213333122221  ",
"  1222213333122221  ",
"  1222213333122221  ",
"  1222211111122221  ",
"  1222222222222221  ",
"  1222222222222221  ",
"  1222222222222221  ",
"  1222222222222221  ",
"  1111111111111111  ",
"                    ",
"                    "
};
