/* XPM */
static char *xpm_open_xpm[] = {
"20 20 10 1",
" 	c None",
"1	c #000000",
"2	c #FFFF92",
"3	c #49DB00",
"4	c #44D303",
"5	c #40CC05",
"6	c #3BC408",
"7	c #36BD0B",
"8	c #32B50D",
"9	c #2DAE10",
"                    ",
"                    ",
"                    ",
"   11111            ",
"  1222221           ",
" 12222222111111     ",
" 12222222222221     ",
" 12222222222221     ",
" 122211111111111111 ",
" 122213333333333331 ",
" 12214444444444441  ",
" 12215555555555551  ",
" 1216666666666661   ",
" 1217777777777771   ",
" 118888888888881    ",
" 119999999999991    ",
" 11111111111111     ",
"                    ",
"                    ",
"                    "
};
