/* XPM */
static char *xpm_crop_xpm[] = {
"20 20 5 1",
" 	c None",
"1	c #000000",
"2	c #FFFFFF",
"3	c #FF0000",
"4	c #969696",
"                    ",
" 111111111111111111 ",
" 144444444444444441 ",
" 144441112221122241 ",
" 144442333333333141 ",
" 144442333333333141 ",
" 144442333333333141 ",
" 144441333333333241 ",
" 144441333333333241 ",
" 144441333333333241 ",
" 144442333333333141 ",
" 144442333333333141 ",
" 144442211222221141 ",
" 144444444444444441 ",
" 144444444444444441 ",
" 144444444444444441 ",
" 144444444444444441 ",
" 144444444444444441 ",
" 111111111111111111 ",
"                    "
};
