/* XPM */
static char *xpm_config_xpm[] = {
"20 20 6 1",
" 	c None",
"1	c #000000",
"2	c #FFFFFF",
"3	c #929292",
"4	c #2AB2B2",
"5	c #1E7F7F",
"                    ",
"                    ",
"       1        1   ",
"      121      121  ",
"       121    121   ",
"    1  121    11    ",
"   1211221   1      ",
"    1222231 1       ",
"     1111211        ",
"         1111       ",
"      11111231      ",
"     14441 1231     ",
"    144451  1231    ",
"   1444551   1231   ",
"   144551     121   ",
"   14551       11   ",
"    111             ",
"                    ",
"                    ",
"                    "
};
