/* XPM */
static char *xpm_cline_xpm[] = {
"20 20 3 1",
" 	c None",
"1	c #000000",
"2	c #FFFFFF",
"                    ",
"                    ",
"                    ",
"   11111111111111   ",
"   12222222222221   ",
"   12222222222221   ",
"   12112222222221   ",
"   12112111111121   ",
"   12222222222221   ",
"   12112222222221   ",
"   12112111111121   ",
"   12222222222221   ",
"   12112222222221   ",
"   12112111111121   ",
"   12222222222221   ",
"   12222222222221   ",
"   11111111111111   ",
"                    ",
"                    ",
"                    "
};
