/* XPM */
static char *xpm_mode_cont_xpm[] = {
"22 22 2 1",
" 	c None",
"1	c #000000",
"                      ",
"                      ",
"                      ",
"                      ",
"   111  111           ",
"   111  111           ",
"   111  111    111    ",
"               111    ",
"               111    ",
"                      ",
"   111111             ",
"   111111111          ",
"   111111111111       ",
"      1111111111      ",
"          1111111     ",
"            11111     ",
"             11111    ",
"              1111    ",
"              1111    ",
"                      ",
"                      ",
"                      "
};
