/* XPM */
static char *xpm_ellipse_xpm[] = {
"20 20 4 1",
" 	c None",
"1	c #000000",
"2	c #FF0000",
"3	c #FFFF00",
"       1            ",
"    1111111         ",
"   111111111        ",
"  11111111211       ",
" 111222222222222    ",
" 12222222222222222  ",
" 222222222222222222 ",
"12222222222222222222",
"22222222222222222222",
"22222222222222222222",
"12222222222222222222",
"1222222222222222222 ",
"112222222222222222  ",
" 111222222222222    ",
" 1111111112111      ",
" 1111111111111      ",
"  11111111111       ",
"   111111111        ",
"    1111111         ",
"       1            "
};
