/* XPM */
static char *xpm_mode_blend_xpm[] = {
"22 22 9 1",
" 	c None",
"1	c #000000",
"2	c #FF0000",
"3	c #FF00FF",
"4	c #FFFF00",
"5	c #0000FF",
"6	c #FFFFFF",
"7	c #00FF00",
"8	c #00FFFF",
"                      ",
"         1111         ",
"       11222211       ",
"      1222222221      ",
"     122222222221     ",
"     122222222221     ",
"    12222222222221    ",
"    12333322444421    ",
"   1533333664444471   ",
"  155333366664444771  ",
"  155533366664447771  ",
" 15555336666664477771 ",
" 15555536666664777771 ",
" 15555558666687777771 ",
" 15555558888887777771 ",
"  155555588887777771  ",
"  155555588887777771  ",
"   1555555887777771   ",
"    11555511777711    ",
"      1111  1111      ",
"                      ",
"                      "
};
