/* XPM */
static char *xpm_grad_place_xpm[] = {
"22 22 18 2",
"  	c None",
"01	c #000000",
"02	c #FF0000",
"03	c #FF8000",
"04	c #FFFF00",
"05	c #80FF00",
"06	c #00FF00",
"07	c #00FF55",
"08	c #00FFAA",
"09	c #00FFFF",
"0A	c #00AAFF",
"0B	c #0055FF",
"0C	c #0000FF",
"0D	c #8000FF",
"0E	c #FF00FF",
"0F	c #FF0080",
"10	c #FF0000",
"11	c #FFFFFF",
"                                            ",
"                                            ",
"  01                  01010101010101010101  ",
"  0101                01020202020202020201  ",
"  011101              01030303030303030301  ",
"  01111101            01040404040404040401  ",
"  0111111101          01050505050505050501  ",
"  011111111101        01060606060606060601  ",
"  01111111111101      01070707070707070701  ",
"  0111111111111101    01080808080808080801  ",
"  011111111111111101  01090909090909090901  ",
"  01111111111111111101010A0A0A0A0A0A0A0A01  ",
"  01111111111101010101010B0B0B0B0B0B0B0B01  ",
"  01111101111101      010C0C0C0C0C0C0C0C01  ",
"  011101  01111101    010D0D0D0D0D0D0D0D01  ",
"  0101    01111101    010E0E0E0E0E0E0E0E01  ",
"  01        01111101  010F0F0F0F0F0F0F0F01  ",
"            01111101  01101010101010101001  ",
"              010101  01010101010101010101  ",
"                                            ",
"                                            ",
"                                            "
};
