/* XPM */
static char *xpm_lasso_xpm[] = {
"20 20 4 1",
" 	c None",
"1	c #000000",
"2	c #FFFFFF",
"3	c #FF0000",
"                    ",
"   11111111111      ",
"  122222222222111   ",
" 12211111111122221  ",
" 121         111221 ",
" 121            1221",
" 1221            121",
"  12211         1221",
"   1222111     1221 ",
"    11222211 11221  ",
"      11122212221   ",
"         1122221    ",
"           111221   ",
"              121   ",
"           111221   ",
"       111122221    ",
"   111122222111     ",
"  1222221111        ",
"   11111            ",
"                    "
};
