/* XPM */
static char * xpm_select_xpm[] = {
"20 20 4 1",
" 	c None",
".	c #000000",
"+	c #FFFFFF",
"@	c #FF0000",
"                    ",
"                    ",
"                    ",
"   ...+++..+++...   ",
"   +@@@@@@@@@@@@+   ",
"   +@@@@@@@@@@@@+   ",
"   +@@@@@@@@@@@@+   ",
"   .@@@@@@@@@@@@.   ",
"   .@@@@@@@@@@@@.   ",
"   .@@@@@@@@@@@@.   ",
"   +@@@@@@@@@@@@+   ",
"   +@@@@@@@@@@@@+   ",
"   +@@@@@@@@@@@@+   ",
"   .@@@@@@@@@@@@.   ",
"   .@@@@@@@@@@@@.   ",
"   +@@@@@@@@@@@@+   ",
"   ++..+++++...++   ",
"                    ",
"                    ",
"                    "};
