/* XPM */
static char *xpm_home_xpm[] = {
"18 18 5 1",
" 	c None",
"1	c #FFFFFF",
"2	c #000000",
"3	c #FFB650",
"4	c #FF0000",
"                  ",
"        22        ",
"       2332222    ",
"      23443212    ",
"     234444312    ",
"    2344224432    ",
"   234421124432   ",
"  23442111124432  ",
" 2344211111124432 ",
"234421111111124432",
" 2421111221111242 ",
"  22111244211122  ",
"   211124321112   ",
"   211124321112   ",
"   211124321112   ",
"   211124321112   ",
"   222222222222   ",
"                  "
};
