/* XPM */
static char *xpm_save_xpm[] = {
"20 20 12 1",
" 	c None",
"1	c #000000",
"2	c #FFFFFF",
"3	c #DBDBDB",
"4	c #B6B6B6",
"5	c #929292",
"6	c #00B6FF",
"7	c #00A4FB",
"8	c #0092F8",
"9	c #007FF4",
"A	c #006DF1",
"B	c #005BED",
"                    ",
"                    ",
"  1111111111111111  ",
"  1666666666666661  ",
"  1662222222222661  ",
"  1672222222222671  ",
"  1772222222222771  ",
"  1782222222222781  ",
"  1882222222222881  ",
"  1892222222222891  ",
"  1999999999999991  ",
"  1999999999999991  ",
"  19A443323344A9A1  ",
"  1AA431133444AAA1  ",
"  1AB331B34445BAB1  ",
"  1BB321B44455BBB1  ",
"   1B233444555BBB1  ",
"    11111111111111  ",
"                    ",
"                    "
};
