/* XPM */
static char *xpm_undo_xpm[] = {
"20 20 8 1",
" 	c None",
"1	c #000000",
"2	c #FFFF6D",
"3	c #F0F066",
"4	c #E2E25F",
"5	c #D3D357",
"6	c #C5C550",
"7	c #B6B649",
"                    ",
"                    ",
"                    ",
"         111        ",
"        1121        ",
"       11221        ",
"      112321        ",
"     113333111111   ",
"    1134343434341   ",
"   11444444444441   ",
"   11545454545451   ",
"    1155555555551   ",
"     116565111111   ",
"      116661        ",
"       11761        ",
"        1171        ",
"         111        ",
"                    ",
"                    ",
"                    "
};
