/* XPM */
static char *xpm_layers_xpm[] = {
"20 20 5 1",
" 	c None",
"1	c #000000",
"2	c #FFFFFF",
"3	c #E6E6E2",
"4	c #CDCDFF",
"                    ",
"                    ",
"                    ",
"       1111111111   ",
"      12222222221   ",
"     12222222221    ",
"    12222222221     ",
"   12222222221111   ",
"   11111111113331   ",
"     13333333331    ",
"    13333333331     ",
"   13333333331111   ",
"   11111111114441   ",
"     14444444441    ",
"    14444444441     ",
"   14444444441      ",
"   1111111111       ",
"                    ",
"                    ",
"                    "
};
