/* XPM */
static char *xpm_flip_vs_xpm[] = {
"20 20 5 1",
" 	c None",
"1	c #000000",
"2	c #FFFFFF",
"3	c #B4B4B4",
"4	c #FF0000",
"           222111222",
"           144444441",
"  1   11   144444441",
" 111  1211 144444441",
"11111 1222 244444442",
"  1   1222 244444442",
"  1   1222 244444442",
"  1   1222 144444441",
"  1   1111 111222111",
"  1                 ",
"  1                 ",
"  1   11111111111111",
"  1   133333333311  ",
"  1   1333333311    ",
"  1   13333311      ",
"11111 133311        ",
" 111  1311          ",
"  1   11            ",
"                    ",
"                    "
};
