/* XPM */
static char *xpm_polygon_xpm[] = {
"20 20 4 1",
" 	c None",
"1	c #000000",
"2	c #FFFFFF",
"3	c #FF0000",
"                    ",
"           1        ",
"          11        ",
"         2332       ",
"        23332       ",
"       233332       ",
"      13333331      ",
"     133333331      ",
"    1333333331      ",
"   233333333332     ",
"  2333333333332     ",
" 213333333333332    ",
"   1133333333331    ",
"     22333333331    ",
"       2113333331   ",
"          1133332   ",
"            22332   ",
"              2132  ",
"                11  ",
"                    "
};
