/* XPM */
static char *xpm_home_xpm[] = {
"20 20 4 1",
" 	c None",
"1	c #000000",
"2	c #FF4949",
"3	c #FFFF92",
"                    ",
"         11         ",
"        1111        ",
"       112211       ",
"      11222211      ",
"     1122222211     ",
"    112222222211    ",
"   11222222222211   ",
"  1122222222222211  ",
"  1111111111111111  ",
"    133333333331    ",
"    133333311131    ",
"    133111311131    ",
"    133111311131    ",
"    133111333331    ",
"    133111333331    ",
"    133111333331    ",
"    111111111111    ",
"                    ",
"                    "
};
