/* XPM */
static char *xpm_smudge_xpm[] = {
"20 20 15 1",
" 	c None",
"1	c #000000",
"2	c #151515",
"3	c #2A2A2A",
"4	c #404040",
"5	c #555555",
"6	c #6A6A6A",
"7	c #7F7F7F",
"8	c #959595",
"9	c #AAAAAA",
"A	c #BFBFBF",
"B	c #D4D4D4",
"C	c #EAEAEA",
"D	c #FFFFFF",
"E	c #000000",
"             EEEEEEE",
"            E111111E",
"           E2222221E",
"          E33333321E",
"         E444444321E",
"        E5555554321E",
"       E66666654321E",
"      E77777765432E ",
"     E88888876543E  ",
"    E99999987654E   ",
"   EAAAAAA98765E    ",
"  EBBBBBBA9876E     ",
" ECCCCCCBA987E      ",
"EDDDDDDCBA98E       ",
"EDDDDDDCBA9E        ",
"EDDDDDDCBAE         ",
"EDDDDDDCBE          ",
"EDDDDDDCE           ",
"EDDDDDDE            ",
"EEEEEEE             "
};
