/* XPM */
static char *xpm_dustbin_xpm[] = {
"20 20 10 1",
" 	c None",
"1	c #000000",
"2	c #FFFFFF",
"3	c #EFEFEF",
"4	c #E0E0E0",
"5	c #D0D0D0",
"6	c #C1C1C1",
"7	c #B1B1B1",
"8	c #A2A2A2",
"9	c #929292",
"                    ",
"                    ",
"        1111        ",
"  1111111111111111  ",
"  1543223456789991  ",
"  1111111111111111  ",
"    143234567891    ",
"    143234567891    ",
"    143234567891    ",
"    143234567891    ",
"    143234567891    ",
"    143234567891    ",
"    143234567891    ",
"    143234567891    ",
"    143234567891    ",
"    143234567891    ",
"    143234567891    ",
"    111111111111    ",
"                    ",
"                    "
};
