/* XPM */
static char *xpm_cut_xpm[] = {
"20 20 2 1",
" 	c None",
"1	c #000000",
"                    ",
"                    ",
"    1          1    ",
"    11        11    ",
"     11      11     ",
"     11      11     ",
"      11    11      ",
"       11  11       ",
"       11  11       ",
"        1111        ",
"         11         ",
"         11         ",
"        1111        ",
"    11111  11111    ",
"   11 11    11 11   ",
"   1   1    1   1   ",
"   11 11    11 11   ",
"    111      111    ",
"                    ",
"                    "
};
