/* XPM */
static char *xpm_info_xpm[] = {
"20 20 4 1",
" 	c None",
"1	c #000000",
"2	c #0064FF",
"3	c #FFFFFF",
"       111111       ",
"     1122222211     ",
"    122223322221    ",
"   12222333322221   ",
"  1222223333222221  ",
" 122222223322222221 ",
" 122222222222222221 ",
"12222333333322222221",
"12222333333322222221",
"12222222333322222221",
"12222222333322222221",
"12222222333322222221",
"12222222333322222221",
" 122222233332222221 ",
" 122233333333332221 ",
"  1223333333333221  ",
"   12222222222221   ",
"    122222222221    ",
"     1122222211     ",
"       111111       "
};
