/* XPM */
static char *xpm_down_xpm[] = {
"20 20 8 1",
" 	c None",
"1	c #000000",
"2	c #FFFF6D",
"3	c #F0F066",
"4	c #E2E25F",
"5	c #D3D357",
"6	c #C5C550",
"7	c #B6B649",
"                    ",
"                    ",
"                    ",
"       111111       ",
"       144551       ",
"       134451       ",
"       144551       ",
"       134451       ",
"   11111445511111   ",
"   12223344556671   ",
"   11233445566711   ",
"    112334455611    ",
"     1134455611     ",
"      11344511      ",
"       114511       ",
"        1111        ",
"         11         ",
"                    ",
"                    ",
"                    "
};
