/* XPM */
static char *xpm_mode_tint2_xpm[] = {
"22 22 30 2",
"  	c None",
"01	c #FFFFFF",
"02	c #EDEDED",
"03	c #DBDBDB",
"04	c #C8C8C8",
"05	c #B6B6B6",
"06	c #A4A4A4",
"07	c #929292",
"08	c #7F7F7F",
"09	c #6D6D6D",
"0A	c #5B5B5B",
"0B	c #494949",
"0C	c #373737",
"0D	c #242424",
"0E	c #121212",
"0F	c #000000",
"10	c #00FF00",
"11	c #00ED00",
"12	c #00DB00",
"13	c #00C800",
"14	c #00B600",
"15	c #00A400",
"16	c #009200",
"17	c #007F00",
"18	c #006D00",
"19	c #005B00",
"1A	c #004900",
"1B	c #003700",
"1C	c #002400",
"1D	c #001200",
"                                            ",
"                                            ",
"                                            ",
"            0F      0708090A0B0C0D0E0F      ",
"            0F      0708090A0B0C0D0E0F      ",
"        0F0F0F0F0F  0708090A0B0C0D0E0F      ",
"            0F      0708090A0B0C0D0E0F      ",
"            0F      0708090A0B0C0D0E0F      ",
"                    0708090A0B0C0D0E0F      ",
"        0102030405060708090A0B0C0D0E0F      ",
"        0102030405060708090A0B0C0D0E0F      ",
"        101112131415161718191A1B1C1D0F      ",
"        101112131415161718191A1B1C1D0F      ",
"        101112131415161718191A1B1C1D0F      ",
"        101112131415161718                  ",
"        101112131415161718  0F0F0F0F0F      ",
"        101112131415161718                  ",
"        101112131415161718                  ",
"                                            ",
"                                            ",
"                                            ",
"                                            "
};
