/* XPM */
static char *xpm_redo_xpm[] = {
"20 20 8 1",
" 	c None",
"1	c #000000",
"2	c #FFFF6D",
"3	c #F0F066",
"4	c #E2E25F",
"5	c #D3D357",
"6	c #C5C550",
"7	c #B6B649",
"                    ",
"                    ",
"                    ",
"        111         ",
"        1211        ",
"        12211       ",
"        123211      ",
"   111111333311     ",
"   1434343434311    ",
"   14444444444411   ",
"   15454545454511   ",
"   1555555555511    ",
"   111111565611     ",
"        166611      ",
"        16711       ",
"        1711        ",
"        111         ",
"                    ",
"                    ",
"                    "
};
