/* XPM */
static char *xpm_mode_mask_xpm[] = {
"22 22 4 1",
" 	c None",
"1	c #FFFF00",
"2	c #FF6D00",
"3	c #000000",
"                      ",
"                      ",
"  3333          3333  ",
"  3111333    3331113  ",
"  311111133331111113  ",
"  311111111111111113  ",
"  311331111111133113  ",
"  311333311113333113  ",
"  311133331133331113  ",
"  311113331133311113  ",
"  311111111111111113  ",
"  311111111111111113  ",
"  311331111111133113  ",
"  311333311113333113  ",
"   3113333333333113   ",
"   3111333333331113   ",
"    31113333331113    ",
"     311111111113     ",
"      3111111113      ",
"       33111133       ",
"         3333         ",
"                      "
};
