/* XPM */
static char *xpm_paint_xpm[] = {
"20 20 8 1",
" 	c None",
"1	c #C8C8FF",
"2	c #7878FF",
"3	c #0000FF",
"4	c #000000",
"5	c #B6B678",
"6	c #DBDBB4",
"7	c #FFFFC8",
"                    ",
"             44444  ",
"            432124  ",
"           4321224  ",
"          43212224  ",
"         432122234  ",
"        4321222334  ",
"       4321222334   ",
"      4321222334    ",
"     4321222334     ",
"    4321222334      ",
"    476222334       ",
"   467652334        ",
"   47655534         ",
"  46755544          ",
"  425544            ",
" 42344              ",
" 434                ",
" 44                 ",
"                    "
};
