/* XPM */
static char *xpm_mode_opac_xpm[] = {
"22 22 4 1",
" 	c None",
"1	c #6D6D6D",
"2	c #494949",
"3	c #242424",
"                      ",
"                      ",
"                      ",
"   11111111           ",
"   11111111           ",
"   11111111           ",
"   111122221111       ",
"   111122221111       ",
"   111122221111       ",
"   111122221111       ",
"   111122232222111    ",
"       11122222111    ",
"       11122222111    ",
"       11122222111    ",
"          11111111    ",
"          11111111    ",
"          11111111    ",
"          11111111    ",
"                      ",
"                      ",
"                      ",
"                      "
};
