/* XPM */
static char *xpm_text_xpm[] = {
"20 20 2 1",
" 	c None",
"1	c #000000",
"                    ",
" 11111111111111111  ",
" 11111111111111111  ",
" 111    111    111  ",
" 11     111     11  ",
" 1      111      1  ",
"        111         ",
"        111         ",
"        111         ",
"        111         ",
"        111         ",
"        111         ",
"        111         ",
"        111         ",
"        111         ",
"        111         ",
"       11111        ",
"      1111111       ",
"     111111111      ",
"                    "
};
