/* XPM */
static char *xpm_clone_xpm[] = {
"20 20 3 1",
" 	c None",
"1	c #000000",
"2	c #FFFFFF",
"                    ",
"                    ",
"   1111      1111   ",
"  122221    122221  ",
" 12222221  12222221 ",
" 12222221  12222221 ",
" 12222221  12222221 ",
"  122221    122221  ",
"   1221      1221   ",
" 111221111111122111 ",
"12222222222222222221",
"12222222222222222221",
" 111221111111122111 ",
"   1221      1221   ",
"   1221      1221   ",
"  122221    122221  ",
" 12211221  12211221 ",
"1221  12211221  1221",
" 11    11  11    11 ",
"                    "
};
