/* XPM */
static char *xpm_brcosa_xpm[] = {
"20 20 12 1",
" 	c None",
"1	c #000000",
"2	c #FFFF00",
"3	c #FFE300",
"4	c #FFC600",
"5	c #FFAA00",
"6	c #FF8E00",
"7	c #FF7100",
"8	c #FF5500",
"9	c #FF3900",
"A	c #FF1C00",
"B	c #FF0000",
"         11         ",
" 11      11      11 ",
" 111     11     111 ",
"  111          111  ",
"   11   1111   11   ",
"      11876511      ",
"     1A98765431     ",
"     1A98765431     ",
"    1BA987654321    ",
"111 1BA987654321 111",
"111 1BA987654321 111",
"    1BA987654321    ",
"     1A98765431     ",
"     1A98765431     ",
"      11876511      ",
"   11   1111   11   ",
"  111          111  ",
" 111     11     111 ",
" 11      11      11 ",
"         11         "
};
