/* XPM */
static char *xpm_brush_xpm[] = {
"20 20 8 1",
" 	c None",
"1	c #B9B900",
"2	c #969600",
"3	c #646400",
"4	c #000000",
"5	c #8C8C8C",
"6	c #C8C8C8",
"7	c #FFFFFF",
"                444 ",
"               42224",
"              421234",
"             421234 ",
"            421234  ",
"           421234   ",
"         4421234    ",
"      444221234     ",
"     456711234      ",
"    425776234       ",
"   4212566534       ",
"  4212315654        ",
" 42123123554        ",
"421231231234        ",
"41231231234         ",
" 431231234          ",
"  4231234           ",
"   41234            ",
"    434             ",
"     4              "
};
