/* XPM */
static char *xpm_rect2_xpm[] = {
"20 20 4 1",
" 	c None",
"1	c #000000",
"2	c #FF0000",
"3	c #FFFF00",
"                    ",
"    1111111111111111",
"    1111111111111111",
"    1111111111111111",
"    1111111111111111",
"22222222222222211111",
"22222222222222211111",
"22222222222222211111",
"22222222222222211111",
"22222222222222211111",
"22222222222222211111",
"22222222222222211111",
"22222222222222211111",
"22222222222222211111",
"22222222222222211111",
"22222222222222211111",
"222222222222222     ",
"222222222222222     ",
"222222222222222     ",
"222222222222222     "
};
