/* XPM */
static char *xpm_case_xpm[] = {
"20 20 4 1",
" 	c None",
"1	c #000000",
"2	c #FF4949",
"3	c #FFFFFF",
"                    ",
"                    ",
"                    ",
"        11111       ",
"       1133311      ",
"       1333331      ",
"       1333331      ",
"      113333311     ",
"      133133331     ",
"     1133133331     ",
"     13311133311    ",
"     13311133331    ",
"    113333333331    ",
"    1331111133311   ",
"    1331   133331   ",
"  1113111 11133311  ",
"  1333331 13333331  ",
"  1111111 11111111  ",
"                    ",
"                    "
};
