/* XPM */
static char *xpm_hidden_xpm[] = {
"20 20 3 1",
" 	c None",
"1	c #000000",
"2	c #FFFFFF",
"                    ",
"                    ",
"                    ",
"    1111111         ",
"    12222211        ",
"    122222121       ",
"    1222221221      ",
"    122222122 1     ",
"    12222211 1 1    ",
"    1222222 2 2     ",
"    122222 2 2 1    ",
"    12222 2 2 2     ",
"    1222 2 2 2 1    ",
"    122 2 2 2 2     ",
"    12 2 2 2 2 1    ",
"    1 2 2 2 2 2     ",
"     1 1 1 1 1 1    ",
"                    ",
"                    ",
"                    "
};
