/* XPM */
static char * xpm_flood_xpm[] = {
"20 20 8 1",
".	c None",
"+	c #000000",
"@	c #505050",
"#	c #A0A0A0",
"$	c #C8C8C8",
"%	c #FF2200",
"&	c #FFFFFF",
"*	c #787878",
"....................",
"....................",
"....................",
".........++++.......",
".......++@@+#+......",
"......+@@@@+$#+.....",
".....+@@@@+$$$#+....",
"....%%%%%+$$&&$#+...",
"...%%%%++$$&&&&$#+..",
"..%%%++#$$&&&&&&$#+.",
"..%%%+*#$$&&&&&&&$+.",
".%%%%.+*#$$&&&&&&$+.",
".%%%...+*#$$&&&&$+..",
".%%%....+*#$$&&$#+..",
".%%%.....+*#$$$#+...",
".%%%......+*##++....",
".%%%.......+++......",
"..%.................",
"..%.................",
"...................."};
