/* XPM */
static char *xpm_ellipse2_xpm[] = {
"20 20 4 1",
" 	c None",
"1	c #000000",
"2	c #FF0000",
"3	c #FFFF00",
"       1            ",
"    1111111         ",
"   111111111        ",
"  111     211       ",
" 111222222222222    ",
" 12222222222222222  ",
" 222         11 222 ",
"122          11  222",
"222          11   22",
"222          11   22",
"122          11  222",
"1222         11 222 ",
"112222222222222222  ",
" 1  222222222222    ",
" 11       2 11      ",
" 111       111      ",
"  111     111       ",
"   111111111        ",
"    1111111         ",
"       1            "
};
