/* XPM */
static char *xpm_cols_xpm[] = {
"20 20 11 1",
"0	c #000000",
" 	c None",
"2	c #FF0000",
"3	c #00FF00",
"4	c #FFFF00",
"5	c #0000FF",
"6	c #FF00FF",
"7	c #FFFFFF",
"8	c #00FFFF",
"9	c #B6B6B6",
"A	c #494949",
"0000000000000000000 ",
"0222220333330444440 ",
"0222220333330444440 ",
"0222220333330444440 ",
"0222220333330444440 ",
"0222220333330444440 ",
"0000000000000000000 ",
"0555550666660777770 ",
"0555550666660777770 ",
"0555550666660777770 ",
"0555550666660777770 ",
"0555550666660777770 ",
"0000000000000000000 ",
"0888880999990AAAAA0 ",
"0888880999990AAAAA0 ",
"0888880999990AAAAA0 ",
"0888880999990AAAAA0 ",
"0888880999990AAAAA0 ",
"0000000000000000000 ",
"                    "
};
