/* XPM */
static char *xpm_flip_hs_xpm[] = {
"20 20 5 1",
" 	c None",
"1	c #000000",
"2	c #FFFFFF",
"3	c #B4B4B4",
"4	c #FF0000",
"        1  222111222",
"        1  144444441",
"       11  144444441",
"       11  144444441",
"      121  244444442",
"      121  244444442",
"     1221  244444442",
"     1221  144444441",
"    12221  111222111",
"    12221           ",
"   122221  133331   ",
"   122221  133331   ",
"  1222221  1333331  ",
"  1111111  1111111  ",
"                    ",
"    1          1    ",
"   11          11   ",
"  1111111111111111  ",
"   11          11   ",
"    1          1    "
};
