/* XPM */
static char *xpm_line_xpm[] = {
"20 20 3 1",
" 	c None",
"1	c #000000",
"2	c #FFFFFF",
"                    ",
"      11111111      ",
"      12222221      ",
"      12222221      ",
"      11112221      ",
"      12222221      ",
"      12222221      ",
"      11122221      ",
"      12222221      ",
"      12222221      ",
"      11112221      ",
"      12222221      ",
"      12222221      ",
"      11122221      ",
"      12222221      ",
"      12222221      ",
"      11112221      ",
"      12222221      ",
"      12222221      ",
"      11111111      "
};
