/* XPM */
static char *xpm_mode_opac_xpm[] = {
"22 22 4 1",
" 	c None",
"1	c #6D6D6D",
"2	c #494949",
"3	c #242424",
"3333333               ",
"3333333               ",
"3333333               ",
"3333333               ",
"3333333               ",
"3333333               ",
"3333333               ",
"        2222 22       ",
"        2222222       ",
"        2222212       ",
"        2222  2       ",
"        222  22       ",
"        22 2 22       ",
"        2222222       ",
"                      ",
"               1111111",
"               1 1    ",
"               1 1 1 1",
"               1 1 1  ",
"               111   1",
"               1 1    ",
"               111    "
};
