/* XPM */
static char *xpm_smudge_xpm[] = {
"20 20 15 1",
" 	c None",
"1	c #000000",
"2	c #151515",
"3	c #2A2A2A",
"4	c #404040",
"5	c #555555",
"6	c #6A6A6A",
"7	c #7F7F7F",
"8	c #959595",
"9	c #AAAAAA",
"A	c #BFBFBF",
"B	c #D4D4D4",
"C	c #EAEAEA",
"D	c #FFFFFF",
"E	c #000000",
"     1DDD11111      ",
"     1DDD11111      ",
"     1DDD11111      ",
"     1DDD11111      ",
"     1DDD11111      ",
"     1DDD11111      ",
"     1DDD11111      ",
"     1DDD12211      ",
"     1CAA62311      ",
"      CAA95333      ",
"     CB9A954544     ",
"     C9998544434    ",
"   BBB88787655444   ",
"AAABBB88887664444444",
"AABAB988887766544444",
"BBBAB888887756655555",
"BBAA9888787766655555",
"BA998887777776665555",
"99998877777776666666",
"99988877777777777777"
};
