/* XPM */
static char *xpm_save_composite_xpm[] = {
"20 20 12 1",
" 	c None",
"1	c #000000",
"2	c #FFFFFF",
"3	c #DBDBDB",
"4	c #B6B6B6",
"5	c #929292",
"6	c #00B6FF",
"7	c #00A4FB",
"8	c #0092F8",
"9	c #007FF4",
"A	c #006DF1",
"B	c #005BED",
"                    ",
"                    ",
"  1111111111111111  ",
"  1666666666666661  ",
"  1662222222222661  ",
"  1672222222222671  ",
"  1772222222222771  ",
"  1782222222222781  ",
"  1882222222222881  ",
"  1892222222222891  ",
"  19999999911111111 ",
"  19999999912222221 ",
"  19A44332312444441 ",
"  1AA431133122111111",
"  1AB331B34122122222",
"  1BB321B44124124444",
"   1B233444122122222",
"    1111111124122244",
"           122122222",
"           122124444"
};
