/* XPM */
static char *xpm_line_xpm[] = {
"20 20 3 1",
" 	c None",
"1	c #000000",
"2	c #FFFFFF",
"                    ",
" 1111               ",
" 1111               ",
" 1111               ",
" 11111              ",
"    11              ",
"     11             ",
"      11            ",
"       11           ",
"        11          ",
"         11         ",
"          11        ",
"           11       ",
"            11      ",
"             111    ",
"              11111 ",
"               1111 ",
"               1111 ",
"               1111 ",
"                    "
};
