/* XPM */
static char *xpm_mode_cont_xpm[] = {
"22 22 2 1",
" 	c None",
"1	c #000000",
"                      ",
"                      ",
"                      ",
"                      ",
"                      ",
"                      ",
"                      ",
"                      ",
"1                     ",
"    1                 ",
"   111                ",
"   1                  ",
"         111          ",
"        111           ",
"         1     1      ",
"              111     ",
"             11111    ",
"              11111   ",
"                11111 ",
"                 1111 ",
"                  111 ",
"                   1  "
};
