/* XPM */
static char *xpm_layers_close_xpm[] = {
"20 20 5 1",
" 	c None",
"1	c #000000",
"2	c #FFFFFF",
"3	c #E6E6E2",
"4	c #CC4545",
"                    ",
"                    ",
"                    ",
"       1111111111   ",
"  44  12222222441   ",
"   4412222222441    ",
"   444222222444     ",
"   14444222444111   ",
"   11144414443331   ",
"     13444443331    ",
"    13344443331     ",
"   13334444431111   ",
"   11144444412221   ",
"     14442444221    ",
"    14442224441     ",
"   144422222444     ",
"   441111111144     ",
"  4            4    ",
"                    ",
"                    "
};
